<svg width="12" height="18" viewBox="0 0 12 18" fill="none" xmlns="http://www.w3.org/2000/svg">
<g clip-path="url(#clip0_101_2462)">
<path fill-rule="evenodd" clip-rule="evenodd" d="M11.25 3.375H0.75C0.55 3.375 0.375 3.55 0.375 3.75V14.25C0.375 14.45 0.55 14.625 0.75 14.625H11.25C11.45 14.625 11.625 14.45 11.625 14.25V3.75C11.625 3.55 11.45 3.375 11.25 3.375ZM1.125 4.125H3.875V6.875H1.125V4.125ZM1.125 7.625H3.875V10.375H1.125V7.625ZM3.875 13.875H1.125V11.125H3.875V13.875ZM7.375 13.875H4.625V11.125H7.375V13.875ZM7.375 10.375H4.625V7.625H7.375V10.375ZM7.375 6.875H4.625V4.125H7.375V6.875ZM10.875 13.875H8.125V11.125H10.875V13.875ZM10.875 10.375H8.125V7.625H10.875V10.375ZM10.875 6.875H8.125V4.125H10.875V6.875Z" fill="#262626"/>
</g>
<defs>
<clipPath id="clip0_101_2462">
<rect width="12" height="12" fill="white" transform="translate(0 3)"/>
</clipPath>
</defs>
</svg>
