<svg width="12" height="18" viewBox="0 0 12 18" fill="none" xmlns="http://www.w3.org/2000/svg">
<g clip-path="url(#clip0_101_2471)">
<path d="M10.875 15C10.775 15 10.675 14.95 10.6 14.9L6 10.25L1.4 14.9C1.3 15 1.125 15.05 1 14.975C0.85 14.925 0.75 14.775 0.75 14.625V3.375C0.75 3.175 0.925 3 1.125 3H10.875C11.075 3 11.25 3.175 11.25 3.375V14.625C11.25 14.775 11.15 14.925 11.025 14.975C10.975 15 10.925 15 10.875 15ZM6 9.5C6.2 9.5 6.4 9.575 6.55 9.725L10.5 13.725V3.75H1.5V13.725L5.45 9.725C5.6 9.575 5.8 9.5 6 9.5Z" fill="#8E8E8E"/>
</g>
<defs>
<clipPath id="clip0_101_2471">
<rect width="12" height="12" fill="white" transform="translate(0 3)"/>
</clipPath>
</defs>
</svg>
