<svg width="10" height="10" viewBox="0 0 10 10" fill="none" xmlns="http://www.w3.org/2000/svg">
<path d="M4.16667 7.49998C4.90624 7.49983 5.6245 7.25224 6.20708 6.79665L8.03875 8.62831L8.62792 8.03915L6.79625 6.20748C7.25208 5.62484 7.49982 4.90641 7.5 4.16665C7.5 2.32873 6.00458 0.833313 4.16667 0.833313C2.32875 0.833313 0.833333 2.32873 0.833333 4.16665C0.833333 6.00456 2.32875 7.49998 4.16667 7.49998ZM4.16667 1.66665C5.54542 1.66665 6.66667 2.7879 6.66667 4.16665C6.66667 5.5454 5.54542 6.66665 4.16667 6.66665C2.78792 6.66665 1.66667 5.5454 1.66667 4.16665C1.66667 2.7879 2.78792 1.66665 4.16667 1.66665Z" fill="#8E8E8E"/>
</svg>
